<mxfile host="65bd71144e">
    <diagram id="HuOYSCnP7g43yloB8FQX" name="Page-1">
        <mxGraphModel dx="578" dy="902" grid="1" gridSize="10" guides="1" tooltips="1" connect="1" arrows="1" fold="1" page="1" pageScale="1" pageWidth="827" pageHeight="1169" math="0" shadow="0">
            <root>
                <mxCell id="0"/>
                <mxCell id="1" parent="0"/>
                <mxCell id="4" value="" style="edgeStyle=none;html=1;entryX=0.5;entryY=0;entryDx=0;entryDy=0;" edge="1" parent="1" source="2" target="10">
                    <mxGeometry relative="1" as="geometry">
                        <mxPoint x="140" y="70" as="targetPoint"/>
                    </mxGeometry>
                </mxCell>
                <mxCell id="2" value="strat" style="ellipse;whiteSpace=wrap;html=1;" vertex="1" parent="1">
                    <mxGeometry x="80" width="120" height="40" as="geometry"/>
                </mxCell>
                <mxCell id="6" value="" style="edgeStyle=none;html=1;" edge="1" parent="1">
                    <mxGeometry relative="1" as="geometry">
                        <mxPoint x="140" y="120" as="sourcePoint"/>
                        <mxPoint x="140" y="160" as="targetPoint"/>
                    </mxGeometry>
                </mxCell>
                <mxCell id="19" value="" style="edgeStyle=none;html=1;" edge="1" parent="1" source="7" target="18">
                    <mxGeometry relative="1" as="geometry"/>
                </mxCell>
                <mxCell id="7" value="создаём новый&lt;br&gt;двухмерных массив,&lt;br&gt;заполняем его уникальными элементами в одном столбце и количество совпадений в другом&amp;nbsp;" style="shape=process;whiteSpace=wrap;html=1;backgroundOutline=1;size=0.045454545454545456;" vertex="1" parent="1">
                    <mxGeometry x="30" y="160" width="220" height="80" as="geometry"/>
                </mxCell>
                <mxCell id="10" value="&lt;span&gt;получение двухмерного массива данных&lt;/span&gt;" style="shape=parallelogram;perimeter=parallelogramPerimeter;whiteSpace=wrap;html=1;fixedSize=1;" vertex="1" parent="1">
                    <mxGeometry x="50" y="80" width="180" height="40" as="geometry"/>
                </mxCell>
                <mxCell id="11" value="вывод результатов&lt;br&gt;анализа" style="shape=parallelogram;perimeter=parallelogramPerimeter;whiteSpace=wrap;html=1;fixedSize=1;" vertex="1" parent="1">
                    <mxGeometry x="50" y="360" width="180" height="40" as="geometry"/>
                </mxCell>
                <mxCell id="15" value="" style="edgeStyle=none;html=1;" edge="1" parent="1" source="13" target="14">
                    <mxGeometry relative="1" as="geometry"/>
                </mxCell>
                <mxCell id="13" value="создаём новый&lt;br&gt;двухмерных массив,&lt;br&gt;заполняем его уникальными элементами в одном столбце и количество совпадений в другом&amp;nbsp;" style="shape=process;whiteSpace=wrap;html=1;backgroundOutline=1;size=0.05555555555555555;" vertex="1" parent="1">
                    <mxGeometry x="330" width="220" height="80" as="geometry"/>
                </mxCell>
                <mxCell id="17" value="" style="edgeStyle=none;html=1;" edge="1" parent="1" source="14" target="16">
                    <mxGeometry relative="1" as="geometry"/>
                </mxCell>
                <mxCell id="14" value="создаем словарь неповторяющихся элементов в духмерном массиве и заполням первый столбец" style="whiteSpace=wrap;html=1;" vertex="1" parent="1">
                    <mxGeometry x="330" y="120" width="220" height="40" as="geometry"/>
                </mxCell>
                <mxCell id="16" value="подсчитываем количество&lt;br&gt;совпадений по словарю" style="whiteSpace=wrap;html=1;" vertex="1" parent="1">
                    <mxGeometry x="330" y="200" width="220" height="40" as="geometry"/>
                </mxCell>
                <mxCell id="20" value="" style="edgeStyle=none;html=1;" edge="1" parent="1" source="18" target="11">
                    <mxGeometry relative="1" as="geometry"/>
                </mxCell>
                <mxCell id="18" value="сортировка массива по количеству совпадений" style="shape=process;whiteSpace=wrap;html=1;backgroundOutline=1;size=0.045454545454545456;" vertex="1" parent="1">
                    <mxGeometry x="30" y="280" width="220" height="40" as="geometry"/>
                </mxCell>
            </root>
        </mxGraphModel>
    </diagram>
</mxfile>